# xmcd
#
# Track frame offsets: 
#        150
#        18160
#        30100
#        49486
#        65145
#        87792
#        110086
#        122812
#        133131
#        149867
#        163019
#        174415
#        192991
#        203272
#        229108
#        254750
#
# Disc length: 3590 seconds
#
# Revision: 1
# Processed by: cddbd v1.5.2PL0 Copyright (c) Steve Scherf et al.
# Submitted via: ExactAudioCopy v0.99pb3
#
DISCID=e90e0410
DTITLE=Wildes Holz - Wildes Holz im Ebertbad
DYEAR=2009
DGENRE=Jazz
TTITLE0=Walk on the wild side
TTITLE1=Wild boys
TTITLE2=Wild thing
TTITLE3=Hin
TTITLE4=Weg
TTITLE5=Billie Jean
TTITLE6=Black or white
TTITLE7=Der, die, das
TTITLE8=Feuerwasser
TTITLE9=Drowsy Maggie
TTITLE10=Born to be wild
TTITLE11=Cowboy im Tunnel
TTITLE12=Pustekuchen
TTITLE13=Die ruhige Kugel
TTITLE14=Roxanne
TTITLE15=The final countdown
EXTD=YEAR: 2009
EXTT0=
EXTT1=
EXTT2=
EXTT3=
EXTT4=
EXTT5=
EXTT6=
EXTT7=
EXTT8=
EXTT9=
EXTT10=
EXTT11=
EXTT12=
EXTT13=
EXTT14=
EXTT15=
PLAYORDER=
